<svg width="36" height="13" viewBox="0 0 36 13" fill="none" xmlns="http://www.w3.org/2000/svg">
<path d="M0.426136 2.79403V1.27273H7.59375V2.79403H4.92188V10H3.09801V2.79403H0.426136ZM8.77415 1.27273H11.0497L13.4531 7.13636H13.5554L15.9588 1.27273H18.2344V10H16.4446V4.3196H16.3722L14.1136 9.95739H12.8949L10.6364 4.2983H10.5639V10H8.77415V1.27273ZM19.7546 10V1.27273H21.5998V5.12074H21.7148L24.8555 1.27273H27.0671L23.8285 5.1804L27.1055 10H24.8981L22.5075 6.41193L21.5998 7.51989V10H19.7546Z" fill="black"/>
<path d="M0.5 11.5H35C35.2761 11.5 35.5 11.7239 35.5 12C35.5 12.2761 35.2761 12.5 35 12.5H0.5V11.5Z" fill="#D9D9D9" stroke="#1733C6"/>
</svg>
