<svg width="36" height="13" viewBox="0 0 36 13" fill="none" xmlns="http://www.w3.org/2000/svg">
<path d="M0.426136 2.79403V1.27273H7.59375V2.79403H4.92188V10H3.09801V2.79403H0.426136ZM8.77415 1.27273H11.0497L13.4531 7.13636H13.5554L15.9588 1.27273H18.2344V10H16.4446V4.3196H16.3722L14.1136 9.95739H12.8949L10.6364 4.2983H10.5639V10H8.77415V1.27273ZM19.6609 10V8.90483L24.016 2.79403H19.6523V1.27273H26.3342V2.3679L21.9748 8.47869H26.3427V10H19.6609Z" fill="black"/>
<path d="M0.5 11.5H35C35.2761 11.5 35.5 11.7239 35.5 12C35.5 12.2761 35.2761 12.5 35 12.5H0.5V11.5Z" fill="#D9D9D9" stroke="#1733C6"/>
</svg>
